<svg width="18" height="19" viewBox="0 0 18 19" fill="none" xmlns="http://www.w3.org/2000/svg">
<path d="M17.9998 10.0737C18.0056 9.62623 17.8573 9.19506 17.5877 8.8751C17.3181 8.55513 16.9491 8.37258 16.5621 8.3676L5.00329 8.21882L8.89381 3.83603C9.15572 3.51948 9.30151 3.09822 9.30047 2.66099C9.29942 2.22377 9.15162 1.80471 8.88821 1.49212C8.62479 1.17952 8.26633 0.99779 7.88833 0.98521C7.51033 0.972631 7.14232 1.13019 6.86182 1.42468L0.443458 8.65517C0.16608 8.96803 0.00704715 9.39493 0.00129174 9.84208C-0.00446367 10.2892 0.143529 10.7201 0.412763 11.04L6.6429 18.4333C6.77438 18.6008 6.93379 18.7358 7.11163 18.8303C7.28946 18.9249 7.48208 18.9769 7.67799 18.9835C7.8739 18.99 8.06908 18.9508 8.2519 18.8683C8.43472 18.7858 8.60143 18.6616 8.74208 18.5031C8.88272 18.3447 8.99443 18.1552 9.07054 17.9461C9.14665 17.7369 9.18559 17.5123 9.18505 17.2857C9.18451 17.0591 9.14449 16.8351 9.06739 16.6271C8.99029 16.4191 8.87768 16.2313 8.73628 16.075L4.95985 11.5935L16.5186 11.7423C17.3243 11.7527 17.9878 11.0052 17.9998 10.0737Z" fill="white"/>
</svg>
