<svg width="18" height="18" viewBox="0 0 18 18" fill="none" xmlns="http://www.w3.org/2000/svg">
<path d="M8.95791 1.55271e-06C8.51036 1.55271e-06 8.08113 0.153777 7.76467 0.427499C7.4482 0.70122 7.27041 1.07246 7.27041 1.45957L7.27041 13.0193L2.83791 9.18552C2.51801 8.9277 2.09491 8.78735 1.65773 8.79402C1.22056 8.80069 0.80344 8.95387 0.494261 9.22129C0.185082 9.4887 0.00797825 9.84948 0.000264764 10.2276C-0.00744872 10.6057 0.15483 10.9717 0.45291 11.2484L7.76541 17.5731C8.08181 17.8465 8.51072 18 8.95791 18C9.4051 18 9.834 17.8465 10.1504 17.5731L17.4629 11.2484C17.6287 11.1147 17.7617 10.9536 17.8539 10.7746C17.9461 10.5955 17.9957 10.4023 17.9997 10.2063C18.0037 10.0103 17.9621 9.81564 17.8772 9.6339C17.7923 9.45216 17.666 9.28707 17.5057 9.14847C17.3455 9.00987 17.1546 8.90061 16.9445 8.8272C16.7344 8.75379 16.5093 8.71774 16.2827 8.7212C16.0561 8.72466 15.8327 8.76755 15.6257 8.84733C15.4187 8.9271 15.2324 9.04212 15.0779 9.18552L10.6454 13.0193L10.6454 1.45957C10.6454 0.653886 9.88941 1.55271e-06 8.95791 1.55271e-06Z" fill="white"/>
</svg>
