<svg width="19" height="19" viewBox="0 0 19 19" fill="none" xmlns="http://www.w3.org/2000/svg">
<path d="M9.15717 18.1151C9.60473 18.1151 10.0339 17.9613 10.3504 17.6876C10.6669 17.4139 10.8447 17.0426 10.8447 16.6555L10.8447 5.09578L15.2772 8.92957C15.5971 9.18739 16.0202 9.32774 16.4573 9.32107C16.8945 9.3144 17.3116 9.16122 17.6208 8.8938C17.93 8.62639 18.1071 8.26561 18.1148 7.88748C18.1225 7.50936 17.9603 7.1434 17.6622 6.86672L10.3497 0.541944C10.0333 0.268615 9.60436 0.115089 9.15717 0.115089C8.70999 0.115089 8.28108 0.268615 7.96467 0.541944L0.652175 6.86672C0.48638 7.00034 0.3534 7.16148 0.261168 7.34052C0.168936 7.51956 0.119342 7.71283 0.115344 7.9088C0.111347 8.10478 0.153027 8.29945 0.237899 8.48119C0.322771 8.66293 0.449097 8.82802 0.609339 8.96662C0.769581 9.10522 0.960458 9.21448 1.17058 9.28789C1.3807 9.3613 1.60577 9.39735 1.83235 9.39389C2.05893 9.39043 2.28239 9.34754 2.48939 9.26776C2.69638 9.18799 2.88269 9.07297 3.03717 8.92957L7.46967 5.09578L7.46967 16.6555C7.46967 17.4612 8.22567 18.1151 9.15717 18.1151Z" fill="white"/>
</svg>
