<svg width="19" height="19" viewBox="0 0 19 19" fill="none" xmlns="http://www.w3.org/2000/svg">
<path d="M0.115083 9.15718C0.115083 9.60473 0.268859 10.034 0.54258 10.3504C0.816302 10.6669 1.18755 10.8447 1.57465 10.8447L13.1344 10.8447L9.3006 15.2772C9.04279 15.5971 8.90243 16.0202 8.9091 16.4574C8.91577 16.8945 9.06895 17.3116 9.33637 17.6208C9.60379 17.93 9.96456 18.1071 10.3427 18.1148C10.7208 18.1225 11.0868 17.9603 11.3635 17.6622L17.6882 10.3497C17.9616 10.0333 18.1151 9.60437 18.1151 9.15718C18.1151 8.70999 17.9616 8.28109 17.6882 7.96468L11.3635 0.652183C11.2298 0.486388 11.0687 0.353408 10.8897 0.261176C10.7106 0.168944 10.5173 0.11935 10.3214 0.115352C10.1254 0.111354 9.93073 0.153034 9.74899 0.237907C9.56724 0.322779 9.40215 0.449104 9.26355 0.609346C9.12495 0.769589 9.01569 0.960465 8.94228 1.17059C8.86888 1.38071 8.83283 1.60578 8.83628 1.83236C8.83974 2.05894 8.88264 2.28239 8.96241 2.48939C9.04218 2.69639 9.1572 2.88269 9.3006 3.03718L13.1344 7.46968L1.57465 7.46968C0.768968 7.46968 0.115083 8.22568 0.115083 9.15718Z" fill="white"/>
</svg>
