<svg width="24" height="24" viewBox="0 0 24 24" fill="none" xmlns="http://www.w3.org/2000/svg">
<path d="M14.5 2.315C18.014 3.219 20.78 5.985 21.685 9.5M22 12C22 14.0988 21.3396 16.1444 20.1124 17.8471C18.8852 19.5498 17.1534 20.8231 15.1623 21.4868C13.1712 22.1505 11.0217 22.1709 9.01832 21.5451C7.01497 20.9193 5.25929 19.6791 4 18M2.192 13.95C1.90368 12.4998 1.94053 11.0038 2.29988 9.56954C2.65924 8.13531 3.33217 6.79862 4.27021 5.65572C5.20825 4.51282 6.38805 3.59216 7.72467 2.96002C9.06128 2.32788 10.5214 2 12 2" stroke="white" stroke-width="1.5" stroke-linecap="round"/>
</svg>
